<?xml version="1.0" encoding="UTF-8" standalone="no"?>
<!-- Created with Inkscape (http://www.inkscape.org/) -->

<svg
   width="192"
   height="256.00027"
   viewBox="0 0 192 256.00027"
   version="1.1"
   id="svg1"
   xml:space="preserve"
   xmlns="http://www.w3.org/2000/svg"
   xmlns:svg="http://www.w3.org/2000/svg"
   xmlns:rdf="http://www.w3.org/1999/02/22-rdf-syntax-ns#"
   xmlns:cc="http://creativecommons.org/ns#"
   xmlns:dc="http://purl.org/dc/elements/1.1/"><title
     id="title15">PlasmaPuffs Clipped Eyes</title><defs
     id="defs1" /><metadata
     id="metadata15"><rdf:RDF><cc:Work
         rdf:about=""><dc:title>PlasmaPuffs Clipped Eyes</dc:title></cc:Work></rdf:RDF></metadata><g
     id="layer2"
     transform="matrix(1.0841219,0,0,1.0578894,-15.790127,2.3979931)"
     style="display:inline;opacity:1;stroke-width:0.933772"><path
       style="display:inline;opacity:1;fill:#ff2ad4;stroke:#000000;stroke-width:7.47018;stroke-linecap:round;stroke-dasharray:none;stroke-opacity:1;paint-order:markers fill stroke"
       d="M 38.633225,200.30337 177.48099,206.78421 107.3122,28.345583 Z"
       id="path1" /><path
       id="path1-2"
       style="display:inline;opacity:1;fill:#00ccff;stroke:#000000;stroke-width:7.47018;stroke-linecap:round;stroke-dasharray:none;stroke-opacity:1;paint-order:markers fill stroke"
       d="M 107.03007,33.455941 96.099523,60.826123 a 15.967989,15.387583 0 0 1 8.511307,13.60596 15.967989,15.387583 0 0 1 -15.96889,15.3876 15.967989,15.387583 0 0 1 -3.933464,-0.473224 L 71.185995,123.20388 a 15.967989,15.387583 0 0 1 3.597679,-0.39644 15.967989,15.387583 0 0 1 15.968909,15.3876 15.967989,15.387583 0 0 1 -15.968909,15.3876 15.967989,15.387583 0 0 1 -13.10035,-6.58909 l -23.332151,58.41959 138.848047,6.48097 -31.29502,-79.58146 a 21.417678,21.652 0 0 1 -13.5017,4.84506 21.417678,21.652 0 0 1 -21.41818,-21.65233 21.417678,21.652 0 0 1 19.82082,-21.591216 z m 15.39167,124.821329 a 18.363187,17.995649 0 0 1 18.36256,17.99659 18.363187,17.995649 0 0 1 -18.36256,17.99503 18.363187,17.995649 0 0 1 -18.36256,-17.99503 18.363187,17.995649 0 0 1 18.36256,-17.99659 z" /><path
       id="path2"
       style="display:inline;opacity:1;fill:#ffffff;stroke:#000000;stroke-width:7.47019;stroke-linecap:round;stroke-dasharray:none"
       d="m 53.058537,185.77015 c -12.562493,-14.3554 -34.75837,-4.43591 -34.758542,16.44968 -0.0015,18.67304 17.991906,29.06699 31.100733,19.76668 8.795066,14.89385 27.438719,16.51215 38.139775,3.56651 8.0841,9.06784 21.179697,8.83627 29.008777,-0.56314 9.85899,14.78469 29.49919,14.64551 39.192,-0.29702 13.09078,10.68128 32.19023,0.32766 32.19038,-18.93266 0.002,-20.47556 -21.4064,-30.54841 -34.16381,-17.1031 -10.66161,-12.74473 -29.07489,-11.18514 -37.90688,3.46433 -7.17598,-7.82762 -18.208197,-8.54363 -26.097498,-1.93175 -8.578639,-13.91903 -25.922676,-15.83385 -36.704935,-4.41953 z" /><ellipse
       style="fill:#ffffff;stroke:#000000;stroke-width:7.47018;stroke-linecap:round;stroke-dasharray:none;stroke-opacity:1;paint-order:markers fill stroke"
       id="path8"
       cx="107.16397"
       cy="24.028229"
       rx="23.214703"
       ry="22.55991" /></g></svg>
