<?xml version="1.0" encoding="UTF-8" standalone="no"?>
<!-- Created with Inkscape (http://www.inkscape.org/) -->

<svg
   width="191.99966"
   height="127.99973"
   viewBox="0 0 191.99966 127.99973"
   version="1.1"
   id="svg1"
   xml:space="preserve"
   xmlns="http://www.w3.org/2000/svg"
   xmlns:svg="http://www.w3.org/2000/svg"
   xmlns:rdf="http://www.w3.org/1999/02/22-rdf-syntax-ns#"
   xmlns:cc="http://creativecommons.org/ns#"
   xmlns:dc="http://purl.org/dc/elements/1.1/"><title
     id="title15">PlasmaPuffs</title><defs
     id="defs1" /><metadata
     id="metadata15"><rdf:RDF><cc:Work
         rdf:about=""><dc:title>PlasmaPuffs</dc:title></cc:Work></rdf:RDF></metadata><g
     id="layer1"
     transform="matrix(1.2720583,0,0,1.2580978,-40.70738,-68.111479)"
     style="stroke-width:0.790477"><path
       id="path1"
       style="fill:#37c837;fill-opacity:1;stroke:#165016;stroke-width:6.32383;stroke-opacity:1;paint-order:markers fill stroke"
       d="M 172.94794,57.321787 C 143.39823,56.523201 110.56743,78.435521 100.9623,102.81753 90.920687,74.423831 63.213929,71.969957 35.266834,66.563148 31.964835,125.1282 107.2675,135.54084 131.52232,124.25363 c 19.4726,-9.07294 37.31964,-28.678251 43.12223,-43.232125 2.73736,-7.207929 4.64736,-14.691959 5.0564,-22.280091 -0.83814,-0.787658 -3.24704,-1.324876 -6.75301,-1.419627 z" /><path
       style="fill:#37c837;fill-opacity:1;stroke:#2ca02c;stroke-width:3.16191;stroke-linecap:round;stroke-dasharray:none;stroke-opacity:1;paint-order:markers fill stroke"
       d="M 95.264563,116.76943 C 82.986916,96.067213 50.540092,90.785552 46.641061,78.934586"
       id="path3" /><path
       style="fill:#37c837;fill-opacity:1;stroke:#2ca02c;stroke-width:3.16191;stroke-linecap:round;stroke-dasharray:none;stroke-opacity:1;paint-order:markers fill stroke"
       d="m 106.31125,117.25815 c 13.7942,-21.28375 36.04324,-36.690185 55.7767,-47.242648"
       id="path4" /><path
       style="fill:none;fill-opacity:1;stroke:#2ca02c;stroke-width:3.16191;stroke-linecap:round;stroke-dasharray:none;stroke-opacity:1;paint-order:markers fill stroke"
       d="m 67.938166,80.48224 c 0.838188,3.687918 -0.810704,9.714297 -1.537966,13.346066"
       id="path5" /><path
       style="fill:none;fill-opacity:1;stroke:#2ca02c;stroke-width:3.16191;stroke-linecap:round;stroke-dasharray:none;stroke-opacity:1;paint-order:markers fill stroke"
       d="m 80.941908,87.677127 c 0.866268,3.177008 -1.956133,11.442269 -2.056549,11.565184"
       id="path6" /><path
       style="fill:none;fill-opacity:1;stroke:#2ca02c;stroke-width:3.16191;stroke-linecap:round;stroke-dasharray:none;stroke-opacity:1;paint-order:markers fill stroke"
       d="m 91.722928,98.4737 c 0.575003,3.50494 -0.406257,7.24653 -2.273323,10.50233"
       id="path7" /><path
       style="fill:none;fill-opacity:1;stroke:#2ca02c;stroke-width:3.16191;stroke-linecap:round;stroke-dasharray:none;stroke-opacity:1;paint-order:markers fill stroke"
       d="m 49.08342,95.668481 c 8.973499,3.098261 16.582761,-1.64966 16.582761,-1.670279"
       id="path8" /><path
       style="fill:none;fill-opacity:1;stroke:#2ca02c;stroke-width:3.16191;stroke-linecap:round;stroke-dasharray:none;stroke-opacity:1;paint-order:markers fill stroke"
       d="m 59.291976,105.28819 c 7.083256,0.98129 12.649137,-1.98244 18.75898,-4.87937"
       id="path9" /><path
       style="fill:none;fill-opacity:1;stroke:#2ca02c;stroke-width:3.16191;stroke-linecap:round;stroke-dasharray:none;stroke-opacity:1;paint-order:markers fill stroke"
       d="m 73.37151,113.54248 c 6.537484,0.45048 10.796397,-0.30889 14.874589,-4.19582"
       id="path10" /><path
       style="fill:none;fill-opacity:1;stroke:#2ca02c;stroke-width:3.16191;stroke-linecap:round;stroke-dasharray:none;stroke-opacity:1;paint-order:markers fill stroke"
       d="m 151.61896,67.679794 c -2.2496,2.342336 -3.6325,5.832143 -2.1769,8.812166"
       id="path11" /><path
       style="fill:none;fill-opacity:1;stroke:#2ca02c;stroke-width:3.16191;stroke-linecap:round;stroke-dasharray:none;stroke-opacity:1;paint-order:markers fill stroke"
       d="m 133.49957,74.533701 c -1.78945,3.788376 -0.90032,8.120247 0.96035,11.749551"
       id="path12" /><path
       style="fill:none;fill-opacity:1;stroke:#2ca02c;stroke-width:3.16191;stroke-linecap:round;stroke-dasharray:none;stroke-opacity:1;paint-order:markers fill stroke"
       d="m 119.09369,87.665552 c -1.35046,3.821038 1.11137,8.853677 2.11287,10.65523"
       id="path13" /><path
       style="fill:none;fill-opacity:1;stroke:#2ca02c;stroke-width:3.16191;stroke-linecap:round;stroke-dasharray:none;stroke-opacity:1;paint-order:markers fill stroke"
       d="m 108.84951,101.94933 c -0.72873,2.94951 -0.0778,6.46849 1.5696,8.96928"
       id="path14" /><path
       style="fill:none;fill-opacity:1;stroke:#2ca02c;stroke-width:3.16191;stroke-linecap:round;stroke-dasharray:none;stroke-opacity:1;paint-order:markers fill stroke"
       d="m 149.95428,77.298301 c 5.03237,3.177581 10.37201,2.40693 16.00651,1.670283"
       id="path15" /><path
       style="fill:none;fill-opacity:1;stroke:#2ca02c;stroke-width:3.16191;stroke-linecap:round;stroke-dasharray:none;stroke-opacity:1;paint-order:markers fill stroke"
       d="m 134.84411,87.953534 c 5.64178,3.834843 10.15291,6.499447 17.60719,6.393147"
       id="path16" /><path
       style="fill:none;fill-opacity:1;stroke:#2ca02c;stroke-width:3.16191;stroke-linecap:round;stroke-dasharray:none;stroke-opacity:1;paint-order:markers fill stroke"
       d="m 121.91084,98.493574 c 3.2341,2.104876 11.40063,6.541506 22.08902,5.989586"
       id="path18" /><path
       style="fill:none;fill-opacity:1;stroke:#2ca02c;stroke-width:3.16191;stroke-linecap:round;stroke-dasharray:none;stroke-opacity:1;paint-order:markers fill stroke"
       d="m 110.48218,110.53111 c 3.91617,3.62659 12.91983,4.07011 19.30387,3.6858"
       id="path19" /></g><path
     style="fill:#37c837;fill-opacity:1;stroke:#165016;stroke-width:8.00002;stroke-opacity:1;paint-order:markers fill stroke"
     d="m 76.072335,87.31322 c -1.106011,6.273728 -4.217745,23.22505 -3.07607,31.0858 1.879255,4.01548 24.923349,11.26434 24.365895,-2.19551 3.83903,-25.306956 2.584288,-17.408239 3.2466,-27.960695"
     id="path2" /></svg>
