<?xml version="1.0" encoding="UTF-8" standalone="no"?>
<!-- Created with Inkscape (http://www.inkscape.org/) -->

<svg
   width="50.874081"
   height="253.61008"
   viewBox="0 0 50.874081 253.61008"
   version="1.1"
   id="svg1"
   xml:space="preserve"
   xmlns="http://www.w3.org/2000/svg"
   xmlns:svg="http://www.w3.org/2000/svg"
   xmlns:rdf="http://www.w3.org/1999/02/22-rdf-syntax-ns#"
   xmlns:cc="http://creativecommons.org/ns#"
   xmlns:dc="http://purl.org/dc/elements/1.1/"><title
     id="title15">PlasmaPuffs</title><defs
     id="defs1" /><g
     id="plasmapuffs"
     style="display:none"
     transform="matrix(1.4331894,0,0,1.4331894,-22.200614,-14.687719)"><path
       style="display:inline;fill:#fae196;fill-opacity:1;stroke:#000000;stroke-width:5.00004;stroke-dasharray:none;stroke-opacity:1"
       d="M 62.043764,178.88504 C 205.0061,221.04071 230.51525,66.087681 109.3633,15.984254 88.700042,7.4387605 65.340918,18.312675 46.820962,37.967059 8.2685932,78.880959 -9.3139625,157.84357 62.043764,178.88504 Z"
       id="path12" /><path
       style="display:inline;fill:none;fill-opacity:1;stroke:#000000;stroke-width:5.00001;stroke-linecap:round;stroke-dasharray:none;stroke-opacity:1"
       d="m 89.928278,157.13358 c 3.199264,8.53147 14.607872,15.16452 26.552722,-0.95607"
       id="path15" /><path
       style="fill:#000000;fill-opacity:1;stroke:none;stroke-width:5.00001;stroke-dasharray:none;stroke-opacity:1"
       d="m 143.6466,16.528999 c -10.52343,7.184823 -10.62325,23.798343 -10.40113,43.14666 1.25416,12.210095 -4.37995,29.751416 9.45017,35.995324 17.05874,1.728533 13.62186,-64.768709 9.18227,-75.952244 -0.76861,-1.565182 -3.90222,-5.385802 -8.23131,-3.18974 z"
       id="path14" /><path
       style="fill:#000000;fill-opacity:1;stroke:none;stroke-width:5.00001;stroke-dasharray:none;stroke-opacity:1"
       d="M 47.583635,24.909894 C 42.183887,36.607484 43.676955,67.373177 44.47508,79.071183 45.262055,97.867309 58.019238,96.76788 61.827008,88.75617 64.323543,83.503294 65.29254,71.323284 65.793026,52.440492 68.164988,7.3733368 52.858016,14.167166 47.583635,24.909894 Z"
       id="path13" /></g><metadata
     id="metadata15"><rdf:RDF><cc:Work
         rdf:about=""><dc:title>PlasmaPuffs</dc:title></cc:Work></rdf:RDF></metadata><ellipse
     style="display:none;opacity:0.5;fill:#fae196;stroke:#000000;stroke-width:5.77296;stroke-linecap:round"
     id="path1"
     cx="24.998661"
     cy="219.37668"
     rx="29.11352"
     ry="33.736835" /><path
     id="rect1"
     style="fill:#e1c864;fill-opacity:1;stroke:#28220b;stroke-width:8;stroke-linecap:round;paint-order:markers fill stroke"
     d="M 25.723471,4 C 14.251408,4.000376 4.95127,10.497709 4.949555,18.513231 c 5.7e-5,0.41187 0.0252,0.823552 0.07537,1.23393 -0.144394,0.119549 -0.242306,0.336239 -0.24158,0.585189 0.220751,75.71306 22.092078,256.33073 0,217.26951 -0.166522,-0.29444 0.222149,0.6858 0.49862,0.6858 h 41.049209 c 0.276472,0 0.677124,-0.94847 0.498621,-0.6858 -21.319777,31.37208 0.196419,-143.15276 0,-217.26951 -8.75e-4,-0.330399 -0.169456,-0.605245 -0.396191,-0.669922 0.04363,-0.382309 0.06555,-0.765674 0.06571,-1.149197 C 46.497637,10.497183 37.196288,3.999631 25.723473,4 Z" /><ellipse
     style="fill:#ffe196;fill-opacity:1;stroke:none;stroke-width:8;stroke-linecap:round;paint-order:markers fill stroke"
     id="path2"
     cx="25.850349"
     cy="19.86912"
     rx="17.323744"
     ry="13.621087" /><ellipse
     style="fill:#e1c864;fill-opacity:1;stroke:#28220b;stroke-width:8;stroke-linecap:round;paint-order:markers fill stroke"
     id="path3"
     cx="25.420574"
     cy="235.77902"
     rx="21.420574"
     ry="13.831057" /><rect
     style="fill:#e1c864;fill-opacity:1;stroke:none;stroke-width:8;stroke-linecap:round;paint-order:markers fill stroke"
     id="rect3"
     width="14.838398"
     height="16.026693"
     x="18.588287"
     y="215.98723"
     rx="0.50433707"
     ry="0.50433707" /><path
     style="fill:#e6e6e6;fill-opacity:1;stroke:none;stroke-width:4;stroke-linecap:round;stroke-dasharray:none;stroke-opacity:1;paint-order:markers fill stroke"
     d="m 17.089672,171.93917 18.14311,-10.46895 -1.814311,52.28559 -14.865645,10.23236 z"
     id="path5" /><path
     style="fill:#28220b;fill-opacity:1;stroke:#28220b;stroke-width:4;stroke-linecap:round;stroke-dasharray:none;stroke-opacity:1;paint-order:markers fill stroke"
     d="M 36.401185,173.06341 17.4472,185.6103"
     id="path4" /><path
     style="fill:#28220b;fill-opacity:1;stroke:#28220b;stroke-width:4;stroke-linecap:round;stroke-dasharray:none;stroke-opacity:1;paint-order:markers fill stroke"
     d="M 35.531178,159.02364 16.991037,170.0649"
     id="path4-8" /><path
     style="fill:#28220b;fill-opacity:1;stroke:#28220b;stroke-width:4;stroke-linecap:round;stroke-dasharray:none;stroke-opacity:1;paint-order:markers fill stroke"
     d="M 35.350795,188.39085 18.217718,198.76294"
     id="path4-4" /><path
     style="fill:#28220b;fill-opacity:1;stroke:#28220b;stroke-width:4;stroke-linecap:round;stroke-dasharray:none;stroke-opacity:1;paint-order:markers fill stroke"
     d="M 35.586855,201.79032 18.453778,212.16241"
     id="path4-4-2" /><path
     style="fill:#28220b;fill-opacity:1;stroke:#28220b;stroke-width:4;stroke-linecap:round;stroke-dasharray:none;stroke-opacity:1;paint-order:markers fill stroke"
     d="M 34.039176,214.92297 16.906099,225.29506"
     id="path4-4-2-5" /></svg>
