<?xml version="1.0" encoding="UTF-8" standalone="no"?>
<!-- Created with Inkscape (http://www.inkscape.org/) -->

<svg
   width="100.013"
   height="256.08902"
   viewBox="0 0 100.013 256.08902"
   version="1.1"
   id="svg1"
   xml:space="preserve"
   xmlns="http://www.w3.org/2000/svg"
   xmlns:svg="http://www.w3.org/2000/svg"
   xmlns:rdf="http://www.w3.org/1999/02/22-rdf-syntax-ns#"
   xmlns:cc="http://creativecommons.org/ns#"
   xmlns:dc="http://purl.org/dc/elements/1.1/"><title
     id="title15">PlasmaPuffs</title><defs
     id="defs1" /><metadata
     id="metadata15"><rdf:RDF><cc:Work
         rdf:about=""><dc:title>PlasmaPuffs</dc:title></cc:Work></rdf:RDF></metadata><g
     id="layer5"
     transform="translate(0.00671682,-0.00706009)"><path
       style="fill:#aa4400;fill-opacity:1;stroke:#2b1100;stroke-width:8.09224;stroke-opacity:1;paint-order:markers fill stroke"
       d="m 82.187649,249.15808 -14.320404,-0.18842 a 7.4179327,7.4179327 49.991862 0 1 -7.224296,-8.6071 l 6.462492,-39.76919 -6.937816,-51.8828 12.367411,-40.72196 -43.738398,-27.147974 -9.65262,-26.84633 9.04933,-26.243043 22.321664,-16.288785 26.544686,-3.921374 29.561132,14.780564 9.06922,27.491085 a 0.31813583,0.31813583 152.04741 0 1 -0.55401,0.293987 L 99.984655,30.466061 74.948189,25.33811 55.944607,26.243042 39.354178,41.626895 36.63938,61.53541 51.721589,81.745569 94.450901,99.252713 a 0.76680362,0.76680362 67.194721 0 1 0.419698,0.998167 l -15.397747,37.90215 4.826306,48.56471 -5.12795,33.18086 z"
       id="path2"
       transform="matrix(0.95375638,0,0,1.0247189,-14.174206,-3.4279672)" /><ellipse
       style="fill:#e196fa;fill-opacity:0.5;stroke:#5500d4;stroke-width:8;stroke-opacity:1;paint-order:markers fill stroke"
       id="path4"
       cx="67.370216"
       cy="60.511818"
       rx="19.075127"
       ry="20.494379" /><path
       style="fill:#803300;fill-opacity:1;stroke:none;stroke-width:8;stroke-opacity:1;paint-order:markers fill stroke"
       d="M 71.442668,100.83191 47.077667,149.5163 62.67721,188.46381 57.625929,137.70434 Z"
       id="path11" /><path
       style="fill:#803300;fill-opacity:1;stroke:none;stroke-width:8;stroke-opacity:1;paint-order:markers fill stroke"
       d="m 53.614618,202.03159 3.78846,20.03243 2.674208,25.45955 -13.073904,-0.15962 z"
       id="path18" /><path
       style="fill:#d45500;fill-opacity:1;stroke:none;stroke-width:8;stroke-opacity:1;paint-order:markers fill stroke"
       d="M 15.507162,27.805317 37.346523,19.505027 58.888749,8.5709913 35.489434,12.002842 Z"
       id="path19" /><path
       style="fill:#d45500;fill-opacity:1;stroke:none;stroke-width:8;stroke-opacity:1;paint-order:markers fill stroke"
       d="M 7.7818283,51.877873 16.816368,61.020267 16.50121,76.821936 Z"
       id="path20" /><path
       style="fill:#d45500;fill-opacity:1;stroke:none;stroke-width:8;stroke-opacity:1;paint-order:markers fill stroke"
       d="M 71.44382,100.86305 59.152644,105.60355 32.574287,83.368341 Z"
       id="path21" /><path
       style="fill:#d45500;fill-opacity:1;stroke:none;stroke-width:8;stroke-opacity:1;paint-order:markers fill stroke"
       d="m 57.774496,18.467491 26.667792,4.070334 1.782801,5.586734 -2.971338,-3.910714 z"
       id="path22" /></g><ellipse
     style="display:none;opacity:0.5;fill:#fae196;stroke:#000000;stroke-width:5.77297;stroke-linecap:round"
     id="path1"
     cx="63.597244"
     cy="207.95309"
     rx="29.422155"
     ry="30.233614" /></svg>
