<?xml version="1.0" encoding="UTF-8" standalone="no"?>
<!-- Created with Inkscape (http://www.inkscape.org/) -->

<svg
   width="159.80901"
   height="383.6178"
   viewBox="0 0 159.80901 383.6178"
   version="1.1"
   id="svg1"
   xml:space="preserve"
   xmlns="http://www.w3.org/2000/svg"
   xmlns:svg="http://www.w3.org/2000/svg"
   xmlns:rdf="http://www.w3.org/1999/02/22-rdf-syntax-ns#"
   xmlns:cc="http://creativecommons.org/ns#"
   xmlns:dc="http://purl.org/dc/elements/1.1/"><title
     id="title15">PlasmaPuffs</title><defs
     id="defs1" /><g
     id="plasmapuffs"
     style="display:none"
     transform="matrix(1.4331894,0,0,1.4331894,-15.199275,-14.687719)"><path
       style="display:inline;fill:#fae196;fill-opacity:1;stroke:#000000;stroke-width:5.00004;stroke-dasharray:none;stroke-opacity:1"
       d="M 62.043764,178.88504 C 205.0061,221.04071 230.51525,66.087681 109.3633,15.984254 88.700042,7.4387605 65.340918,18.312675 46.820962,37.967059 8.2685932,78.880959 -9.3139625,157.84357 62.043764,178.88504 Z"
       id="path12" /><path
       style="display:inline;fill:none;fill-opacity:1;stroke:#000000;stroke-width:5.00001;stroke-linecap:round;stroke-dasharray:none;stroke-opacity:1"
       d="m 89.928278,157.13358 c 3.199264,8.53147 14.607872,15.16452 26.552722,-0.95607"
       id="path15" /><path
       style="fill:#000000;fill-opacity:1;stroke:none;stroke-width:5.00001;stroke-dasharray:none;stroke-opacity:1"
       d="m 143.6466,16.528999 c -10.52343,7.184823 -10.62325,23.798343 -10.40113,43.14666 1.25416,12.210095 -4.37995,29.751416 9.45017,35.995324 17.05874,1.728533 13.62186,-64.768709 9.18227,-75.952244 -0.76861,-1.565182 -3.90222,-5.385802 -8.23131,-3.18974 z"
       id="path14" /><path
       style="fill:#000000;fill-opacity:1;stroke:none;stroke-width:5.00001;stroke-dasharray:none;stroke-opacity:1"
       d="M 47.583635,24.909894 C 42.183887,36.607484 43.676955,67.373177 44.47508,79.071183 45.262055,97.867309 58.019238,96.76788 61.827008,88.75617 64.323543,83.503294 65.29254,71.323284 65.793026,52.440492 68.164988,7.3733368 52.858016,14.167166 47.583635,24.909894 Z"
       id="path13" /></g><metadata
     id="metadata15"><rdf:RDF><cc:Work
         rdf:about=""><dc:title>PlasmaPuffs</dc:title></cc:Work></rdf:RDF></metadata><ellipse
     style="display:none;opacity:0.5;fill:#fae196;stroke:#000000;stroke-width:5.77296;stroke-linecap:round"
     id="path1"
     cx="32"
     cy="219.37668"
     rx="29.11352"
     ry="33.736835" /><g
     id="layer1"><rect
       style="fill:#b7bec8;fill-opacity:1;stroke:none;stroke-width:7.99999;stroke-linecap:round;stroke-dasharray:none;stroke-opacity:1;paint-order:markers fill stroke"
       id="rect11-8"
       width="14.656784"
       height="66.391884"
       x="122.89124"
       y="63.321121"
       rx="0.50433707"
       ry="0.50433707" /><rect
       style="fill:#b7bec8;fill-opacity:1;stroke:none;stroke-width:7.99999;stroke-linecap:round;stroke-dasharray:none;stroke-opacity:1;paint-order:markers fill stroke"
       id="rect10"
       width="20.727011"
       height="95.627007"
       x="70.390694"
       y="34.135582"
       rx="0.50433707"
       ry="0.50433707" /><rect
       style="fill:#b7bec8;fill-opacity:1;stroke:none;stroke-width:8;stroke-linecap:round;stroke-dasharray:none;stroke-opacity:1;paint-order:markers fill stroke"
       id="rect12"
       width="94.640976"
       height="18.98131"
       x="32.504528"
       y="107.65323"
       rx="0.50433707"
       ry="0.50433707" /><rect
       style="fill:#b7bec8;fill-opacity:1;stroke:none;stroke-width:7.99999;stroke-linecap:round;stroke-dasharray:none;stroke-opacity:1;paint-order:markers fill stroke"
       id="rect11"
       width="14.656784"
       height="66.391884"
       x="21.398294"
       y="63.695816"
       rx="0.50433707"
       ry="0.50433707" /><path
       style="fill:#b7bec8;fill-opacity:1;stroke:none;stroke-width:8;stroke-linecap:round;stroke-dasharray:none;stroke-opacity:1;paint-order:markers fill stroke"
       d="M 51.946902,110.98582 72.674724,90.990243 92.759822,91.135138 111.07743,108.81239 103.20407,128.66308 84.886463,147.2097 71.549958,146.34033 60.302303,132.28546 Z"
       id="path16" /></g><path
     style="fill:none;fill-opacity:1;stroke:#1c1f24;stroke-width:8;stroke-linecap:round;stroke-dasharray:none;stroke-opacity:1;paint-order:markers fill stroke"
     d="m 23.455633,64.790428 c -3.529095,21.450644 -9.738479,42.123352 -1.579587,63.759892 6.850843,8.78186 12.608567,1.5342 20.570637,-1.36559"
     id="path2" /><path
     style="fill:none;fill-opacity:1;stroke:#1c1f24;stroke-width:8;stroke-linecap:round;stroke-dasharray:none;stroke-opacity:1;paint-order:markers fill stroke"
     d="M 37.261382,61.053024 C 39.455191,66.160151 22.31869,120.55833 48.782625,107.1107 56.919651,103.29978 63.786127,101.75691 66.491674,95.543429 69.037477,88.46842 73.203995,39.076814 73.202756,32.80486"
     id="path5" /><path
     style="fill:#b7bec8;fill-opacity:1;stroke:#1c1f24;stroke-width:5.28783;stroke-linecap:round;stroke-dasharray:none;stroke-opacity:1;paint-order:markers fill stroke"
     d="M 25.257263,-2.5703772 C 22.058171,7.1165767 18.33325,16.396813 11.647967,23.38727 c -0.240578,0.251561 -0.168391,0.373185 0.165931,0.276184 l 28.623132,-8.30474 c 0.257269,-0.07465 0.264284,-0.216441 0.02175,-0.330111 C 35.023293,12.48113 30.567892,4.475518 25.95653,-2.6615407 c -0.244573,-0.378529 -0.557904,-0.3368898 -0.699267,0.091164 z"
     id="path6"
     transform="matrix(1.7723578,0,0,1.2914378,-15.696719,36.85299)" /><path
     style="fill:none;fill-opacity:1;stroke:#1c1f24;stroke-width:8;stroke-linecap:round;stroke-dasharray:none;stroke-opacity:1;paint-order:markers fill stroke"
     d="m 136.35259,64.117128 c 3.52909,21.450644 9.3298,41.657722 1.1709,63.294262 -6.85082,8.78186 -12.19988,1.99989 -20.16196,-0.89996"
     id="path2-7" /><path
     style="fill:none;fill-opacity:1;stroke:#1c1f24;stroke-width:8;stroke-linecap:round;stroke-dasharray:none;stroke-opacity:1;paint-order:markers fill stroke"
     d="M 120.6606,60.379725 C 118.56615,65.486849 134.92659,119.88502 109.66113,106.4374 103.82384,101.30949 95.440381,97.513789 92.857362,91.300304 90.426863,84.225295 88.0942,39.024344 88.095383,32.75239"
     id="path5-7" /><path
     style="fill:#b7bec8;fill-opacity:1;stroke:#1c1f24;stroke-width:5.28783;stroke-linecap:round;stroke-dasharray:none;stroke-opacity:1;paint-order:markers fill stroke"
     d="M 25.252089,-2.5720966 C 21.540087,8.3801328 17.101062,17.307949 11.634468,23.374472 c -0.233026,0.2586 -0.154892,0.385983 0.17943,0.288982 l 28.623132,-8.30474 c 0.257269,-0.07465 0.262756,-0.212165 0.01433,-0.312373 C 34.198531,12.524127 28.941905,7.5361747 25.751311,-2.5654859 25.615543,-2.99534 25.396789,-2.9990331 25.252089,-2.5720966 Z"
     id="path6-9"
     transform="matrix(-1.7723578,0,0,1.2914378,175.50494,36.17969)" /><path
     style="fill:#b7bec8;fill-opacity:1;stroke:#1c1f24;stroke-width:5.19293;stroke-linecap:round;stroke-dasharray:none;stroke-opacity:1;paint-order:markers fill stroke"
     d="M 21.858738,8.030372 44.138518,7.3552271 C 44.522138,7.3436023 44.615898,7.111414 44.352022,6.8327265 39.82624,2.0529113 35.788102,-4.036745 33.265575,-14.197437 c -0.0807,-0.325055 -0.252004,-0.340309 -0.379962,-0.03079 -3.286729,7.9501725 -4.537965,18.8747425 -11.068153,22.0853625 -0.221677,0.108989 -0.205963,0.1807336 0.04128,0.1732415 z"
     id="path7"
     transform="matrix(1.8079988,0.04922753,-0.04391261,1.3114787,21.322702,20.73037)" /><path
     style="fill:none;fill-opacity:1;stroke:#1c1f24;stroke-width:8;stroke-linecap:round;stroke-dasharray:none;stroke-opacity:1;paint-order:markers fill stroke"
     d="m 117.17584,126.51656 c -12.18654,-6.0238 -19.056773,4.83142 -24.179508,12.6439 -4.925571,11.60155 -23.464169,10.64368 -26.942189,-0.88823 -3.593864,-6.82436 -8.486189,-15.73787 -24.315998,-11.01355"
     id="path8" /><rect
     style="fill:#b7bec8;fill-opacity:1;stroke:#1c1f24;stroke-width:8;stroke-linecap:round;stroke-dasharray:none;stroke-opacity:1;paint-order:markers fill stroke"
     id="rect8"
     width="22.540304"
     height="206.00024"
     x="68.6362"
     y="145.10675"
     rx="0.50433707"
     ry="0.50433701" /><path
     style="fill:#b7bec8;fill-opacity:1;stroke:#1c1f24;stroke-width:8.77113;stroke-linecap:round;stroke-dasharray:none;stroke-opacity:1;paint-order:markers fill stroke"
     d="m 32.789203,268.16884 32.292129,-16.39447 c 0.182133,-0.0925 0.22338,-0.0405 0.09191,0.11577 -12.866862,15.29883 -27.724077,29.8015 -33.268653,48.02924 -0.368912,1.21279 -0.983392,1.24774 -1.454658,0.0707 -5.542709,-13.8438 -13.76756,-27.01707 -28.7247063,-38.50726 -0.488734,-0.37545 -0.4019007,-0.56264 0.1986725,-0.42429 z"
     id="path9"
     transform="matrix(0.96048187,0,0,0.86612414,48.893967,119.24487)" /><rect
     style="fill:#b7bec8;fill-opacity:1;stroke:none;stroke-width:8;stroke-linecap:round;stroke-dasharray:none;stroke-opacity:1;paint-order:markers fill stroke"
     id="rect16"
     width="14.830387"
     height="12.750804"
     x="72.521423"
     y="343.61557"
     rx="0.50433707"
     ry="0.50433701" /><rect
     style="fill:#b7bec8;fill-opacity:1;stroke:none;stroke-width:8;stroke-linecap:round;stroke-dasharray:none;stroke-opacity:1;paint-order:markers fill stroke"
     id="rect16-2"
     width="14.830387"
     height="12.750804"
     x="72.395134"
     y="139.65749"
     rx="0.50433707"
     ry="0.50433701" /><rect
     style="fill:#b7bec8;fill-opacity:1;stroke:none;stroke-width:8.04848;stroke-linecap:round;stroke-dasharray:none;stroke-opacity:1;paint-order:markers fill stroke"
     id="rect16-2-2"
     width="8.4240208"
     height="7.67558"
     x="125.9472"
     y="37.168518"
     rx="0.48032787"
     ry="0.50433701"
     transform="matrix(0.98798622,0.15454203,0,1,0,0)" /><path
     style="fill:#939dac;fill-opacity:1;stroke:none;stroke-width:8;stroke-linecap:round;stroke-dasharray:none;stroke-opacity:1;paint-order:markers fill stroke"
     d="m 87.055654,140.97919 -14.621951,212.63416 -9.158805,-2.02853 15.505695,19.63333 17.112505,-22.82103 -8.676764,3.98462 z"
     id="path17" /><rect
     style="fill:#b7bec8;fill-opacity:1;stroke:none;stroke-width:8.08161;stroke-linecap:round;stroke-dasharray:none;stroke-opacity:1;paint-order:markers fill stroke"
     id="rect16-2-2-5"
     width="6.5258231"
     height="7.67558"
     x="-34.083881"
     y="64.802757"
     rx="0.47755948"
     ry="0.50433701"
     transform="matrix(-0.97989896,0.19949442,0,1,0,0)" /><rect
     style="fill:#b7bec8;fill-opacity:1;stroke:none;stroke-width:8;stroke-linecap:round;stroke-dasharray:none;stroke-opacity:1;paint-order:markers fill stroke"
     id="rect17"
     width="7.4420099"
     height="8.3502131"
     x="76.900917"
     y="28.963015"
     rx="0.48317546"
     ry="0.50433701" /><path
     style="fill:none;fill-opacity:1;stroke:#373e48;stroke-width:8;stroke-linecap:round;stroke-dasharray:none;stroke-opacity:1;paint-order:markers fill stroke"
     d="m 95.509215,295.98321 -30.65023,13.04022"
     id="path18-8" /><path
     style="fill:none;fill-opacity:1;stroke:#373e48;stroke-width:8;stroke-linecap:round;stroke-dasharray:none;stroke-opacity:1;paint-order:markers fill stroke"
     d="m 94.136461,280.24075 -30.65023,13.04023"
     id="path18-8-4" /><path
     style="fill:none;fill-opacity:1;stroke:#373e48;stroke-width:8;stroke-linecap:round;stroke-dasharray:none;stroke-opacity:1;paint-order:markers fill stroke"
     d="m 94.682234,141.07944 -30.65023,13.04023"
     id="path18-8-4-8" /><path
     style="fill:none;fill-opacity:1;stroke:#373e48;stroke-width:8;stroke-linecap:round;stroke-dasharray:none;stroke-opacity:1;paint-order:markers fill stroke"
     d="M 96.6454,158.20397 65.99517,171.2442"
     id="path18-8-4-8-1" /><path
     style="fill:none;fill-opacity:1;stroke:#373e48;stroke-width:8;stroke-linecap:round;stroke-dasharray:none;stroke-opacity:1;paint-order:markers fill stroke"
     d="m 96.614966,312.67412 -30.65023,13.04022"
     id="path18-8-4-6" /><path
     style="fill:none;fill-opacity:1;stroke:#373e48;stroke-width:8;stroke-linecap:round;stroke-dasharray:none;stroke-opacity:1;paint-order:markers fill stroke"
     d="M 96.863304,326.92071 66.213075,339.96093"
     id="path18-8-4-6-9" /></svg>
