<?xml version="1.0" encoding="UTF-8" standalone="no"?>
<!-- Created with Inkscape (http://www.inkscape.org/) -->

<svg
   width="256"
   height="256"
   viewBox="0 0 256 256"
   version="1.1"
   id="svg1"
   xml:space="preserve"
   inkscape:version="1.4.3 (0d15f75, 2025-12-25)"
   sodipodi:docname="baseball_cap.svg"
   inkscape:export-filename="top_hat.png"
   inkscape:export-xdpi="768"
   inkscape:export-ydpi="768"
   xmlns:inkscape="http://www.inkscape.org/namespaces/inkscape"
   xmlns:sodipodi="http://sodipodi.sourceforge.net/DTD/sodipodi-0.dtd"
   xmlns="http://www.w3.org/2000/svg"
   xmlns:svg="http://www.w3.org/2000/svg"
   xmlns:rdf="http://www.w3.org/1999/02/22-rdf-syntax-ns#"
   xmlns:cc="http://creativecommons.org/ns#"
   xmlns:dc="http://purl.org/dc/elements/1.1/"><title
     id="title15">PlasmaPuffs</title><sodipodi:namedview
     id="namedview1"
     pagecolor="#ffffff"
     bordercolor="#000000"
     borderopacity="0.25"
     inkscape:showpageshadow="false"
     inkscape:pageopacity="0.0"
     inkscape:pagecheckerboard="true"
     inkscape:deskcolor="#d1d1d1"
     inkscape:document-units="px"
     showborder="false"
     borderlayer="false"
     labelstyle="below"
     inkscape:zoom="1.9581239"
     inkscape:cx="120.52353"
     inkscape:cy="164.18777"
     inkscape:window-width="1920"
     inkscape:window-height="1094"
     inkscape:window-x="-11"
     inkscape:window-y="-11"
     inkscape:window-maximized="1"
     inkscape:current-layer="svg1"
     showgrid="false" /><defs
     id="defs1"><inkscape:path-effect
       effect="fillet_chamfer"
       id="path-effect20"
       is_visible="true"
       lpeversion="1"
       nodesatellites_param="F,0,0,1,0,0,0,1 @ F,0,0,1,0,0.45372719,0,1 @ F,0,0,1,0,0,0,1"
       radius="0"
       unit="px"
       method="auto"
       mode="F"
       chamfer_steps="1"
       flexible="false"
       use_knot_distance="true"
       apply_no_radius="true"
       apply_with_radius="true"
       only_selected="false"
       hide_knots="false" /><inkscape:path-effect
       effect="fillet_chamfer"
       id="path-effect19"
       is_visible="true"
       lpeversion="1"
       nodesatellites_param="F,0,0,1,0,0,0,1 @ F,0,0,1,0,0.73496695,0,1 @ F,0,0,1,0,0,0,1"
       radius="0"
       unit="px"
       method="auto"
       mode="F"
       chamfer_steps="1"
       flexible="false"
       use_knot_distance="true"
       apply_no_radius="true"
       apply_with_radius="true"
       only_selected="false"
       hide_knots="false" /><inkscape:path-effect
       effect="fillet_chamfer"
       id="path-effect18"
       is_visible="true"
       lpeversion="1"
       nodesatellites_param="F,0,0,1,0,0,0,1 @ F,0,0,1,0,0,0,1 @ F,0,0,1,0,0.463418,0,1"
       radius="0"
       unit="px"
       method="auto"
       mode="F"
       chamfer_steps="1"
       flexible="false"
       use_knot_distance="true"
       apply_no_radius="true"
       apply_with_radius="true"
       only_selected="false"
       hide_knots="false" /><inkscape:path-effect
       effect="simplify"
       id="path-effect13"
       is_visible="false"
       lpeversion="1.3"
       threshold="5"
       steps="1"
       smooth_angles="360"
       helper_size="10"
       simplify_individual_paths="true"
       simplify_just_coalesce="false" /></defs><g
     id="plasmapuffs"
     inkscape:label="PlasmaPuffs"
     inkscape:highlight-color="#fac800"
     style="display:none"
     transform="matrix(1.4331894,0,0,1.4331894,-15.199275,-14.687719)"
     sodipodi:insensitive="true"><path
       style="display:inline;fill:#fae196;fill-opacity:1;stroke:#000000;stroke-width:5.00003698;stroke-dasharray:none;stroke-opacity:1"
       d="M 62.043764,178.88504 C 205.0061,221.04071 230.51525,66.087681 109.3633,15.984254 88.700042,7.4387605 65.340918,18.312675 46.820962,37.967059 8.2685932,78.880959 -9.3139625,157.84357 62.043764,178.88504 Z"
       id="path12"
       sodipodi:nodetypes="ssss"
       inkscape:label="Body" /><path
       style="display:inline;fill:none;fill-opacity:1;stroke:#000000;stroke-width:5.00001;stroke-linecap:round;stroke-dasharray:none;stroke-opacity:1"
       d="m 89.928278,157.13358 c 3.199264,8.53147 14.607872,15.16452 26.552722,-0.95607"
       id="path15"
       sodipodi:nodetypes="cc"
       inkscape:label="Mouth" /><path
       style="fill:#000000;fill-opacity:1;stroke:none;stroke-width:5.00001;stroke-dasharray:none;stroke-opacity:1"
       d="m 143.6466,16.528999 c -10.52343,7.184823 -10.62325,23.798343 -10.40113,43.14666 1.25416,12.210095 -4.37995,29.751416 9.45017,35.995324 17.05874,1.728533 13.62186,-64.768709 9.18227,-75.952244 -0.76861,-1.565182 -3.90222,-5.385802 -8.23131,-3.18974 z"
       id="path14"
       inkscape:label="Right Eye"
       sodipodi:nodetypes="sssss" /><path
       style="fill:#000000;fill-opacity:1;stroke:none;stroke-width:5.00001;stroke-dasharray:none;stroke-opacity:1"
       d="M 47.583635,24.909894 C 42.183887,36.607484 43.676955,67.373177 44.47508,79.071183 45.262055,97.867309 58.019238,96.76788 61.827008,88.75617 64.323543,83.503294 65.29254,71.323284 65.793026,52.440492 68.164988,7.3733368 52.858016,14.167166 47.583635,24.909894 Z"
       id="path13"
       sodipodi:nodetypes="sssss"
       inkscape:label="Left Eye" /></g><metadata
     id="metadata15"><rdf:RDF><cc:Work
         rdf:about=""><dc:title>PlasmaPuffs</dc:title></cc:Work></rdf:RDF></metadata><path
     style="fill:#e6e6e6;stroke:#333333;stroke-width:6.89181;stroke-linecap:round;stroke-linejoin:bevel;paint-order:markers fill stroke"
     d="m 4.5796045,134.26925 c 6.1232635,9.30778 62.7567995,11.7916 65.6573385,10.70903 C 92.353511,99.975705 6.2338759,126.46288 4.5796045,134.26925 Z"
     id="path5"
     sodipodi:nodetypes="scs" /><path
     style="opacity:1;fill:#e6e6e6;stroke:#333333;stroke-width:6.89181;stroke-linecap:round;stroke-linejoin:bevel;stroke-dasharray:none;stroke-opacity:1;paint-order:markers fill stroke"
     d="m 210.92468,123.90625 c 12.43893,-1.27678 22.45759,-3.27116 34.73011,-5.67321 8.16656,-2.05082 2.28219,-13.79008 3.0601,-19.786833 -1.7698,-54.82204 -47.71826,-78.046901 -100.55547,-82.086505"
     id="path3"
     sodipodi:nodetypes="cccc" /><path
     style="opacity:1;fill:#e6e6e6;stroke:#333333;stroke-width:6.89181;stroke-linecap:round;stroke-linejoin:bevel;stroke-dasharray:none;stroke-opacity:1;paint-order:markers fill stroke"
     d="M 62.301491,93.764299 C 63.62313,79.47435 76.018472,57.377603 83.059386,47.284217 115.67136,-9.9133491 210.53071,16.625336 207.13992,80.550426 c -0.002,14.308027 -1.70225,28.572664 -2.8172,42.864774"
     id="path2"
     sodipodi:nodetypes="cccc" /><path
     style="opacity:1;fill:#e6e6e6;stroke:#333333;stroke-width:6.89181;stroke-linecap:round;stroke-linejoin:bevel;stroke-opacity:1;paint-order:markers fill stroke"
     d="M 9.4524761,129.44317 C 10.182165,128.86525 48.577688,101.23882 53.243239,99.244046 92.872084,74.31993 145.49555,109.29418 187.7217,120.54036 c 11.84065,2.98753 26.88366,3.09954 39.11223,2.27382 -3.82601,5.99773 -11.74704,13.18857 -17.52721,17.87626 -70.32717,77.2122 -172.526116,-35.67108 -201.219667,-10.20223 -1.0479395,0.96672 -2.0421218,1.97766 -3.1064687,2.93073"
     id="path1"
     sodipodi:nodetypes="ccccccc" /><path
     style="display:none;fill:none;stroke:#333333;stroke-width:8.70647;stroke-linecap:round;stroke-linejoin:bevel;stroke-opacity:1;paint-order:markers fill stroke"
     d="m 122.3435,94.496172 c 1.72324,-26.306026 7.55432,-61.713585 33.71104,-74.70678"
     id="path4"
     sodipodi:nodetypes="cc" /><path
     style="fill:#e6e6e6;stroke:#333333;stroke-width:6.89181;stroke-linecap:round;stroke-linejoin:bevel;paint-order:markers fill stroke"
     d="m 144.59518,12.544451 c 0.55191,-4.0919998 4.37331,-7.4017735 8.26095,-7.5893597 4.51466,-0.2671214 14.74509,2.3147404 17.75275,3.2443382 6.10163,1.2867246 6.48347,6.4279305 6.66939,11.9175595"
     id="path6"
     sodipodi:nodetypes="cccc" /></svg>
