<?xml version="1.0" encoding="UTF-8" standalone="no"?>
<!-- Created with Inkscape (http://www.inkscape.org/) -->

<svg
   width="256"
   height="256"
   viewBox="0 0 256 256"
   version="1.1"
   id="svg1"
   xml:space="preserve"
   inkscape:version="1.4.3 (0d15f75, 2025-12-25)"
   sodipodi:docname="propeller_hat.svg"
   inkscape:export-filename="top_hat.png"
   inkscape:export-xdpi="768"
   inkscape:export-ydpi="768"
   xmlns:inkscape="http://www.inkscape.org/namespaces/inkscape"
   xmlns:sodipodi="http://sodipodi.sourceforge.net/DTD/sodipodi-0.dtd"
   xmlns="http://www.w3.org/2000/svg"
   xmlns:svg="http://www.w3.org/2000/svg"
   xmlns:rdf="http://www.w3.org/1999/02/22-rdf-syntax-ns#"
   xmlns:cc="http://creativecommons.org/ns#"
   xmlns:dc="http://purl.org/dc/elements/1.1/"><title
     id="title15">PlasmaPuffs</title><sodipodi:namedview
     id="namedview1"
     pagecolor="#ffffff"
     bordercolor="#000000"
     borderopacity="0.25"
     inkscape:showpageshadow="false"
     inkscape:pageopacity="0.0"
     inkscape:pagecheckerboard="true"
     inkscape:deskcolor="#d1d1d1"
     inkscape:document-units="px"
     showborder="false"
     borderlayer="false"
     labelstyle="below"
     inkscape:zoom="1.6100474"
     inkscape:cx="94.407159"
     inkscape:cy="242.53945"
     inkscape:window-width="1920"
     inkscape:window-height="1094"
     inkscape:window-x="-11"
     inkscape:window-y="-11"
     inkscape:window-maximized="1"
     inkscape:current-layer="svg1"
     showgrid="false" /><defs
     id="defs1"><inkscape:path-effect
       effect="fillet_chamfer"
       id="path-effect20"
       is_visible="true"
       lpeversion="1"
       nodesatellites_param="F,0,0,1,0,0,0,1 @ F,0,0,1,0,0.45372719,0,1 @ F,0,0,1,0,0,0,1"
       radius="0"
       unit="px"
       method="auto"
       mode="F"
       chamfer_steps="1"
       flexible="false"
       use_knot_distance="true"
       apply_no_radius="true"
       apply_with_radius="true"
       only_selected="false"
       hide_knots="false" /><inkscape:path-effect
       effect="fillet_chamfer"
       id="path-effect19"
       is_visible="true"
       lpeversion="1"
       nodesatellites_param="F,0,0,1,0,0,0,1 @ F,0,0,1,0,0.73496695,0,1 @ F,0,0,1,0,0,0,1"
       radius="0"
       unit="px"
       method="auto"
       mode="F"
       chamfer_steps="1"
       flexible="false"
       use_knot_distance="true"
       apply_no_radius="true"
       apply_with_radius="true"
       only_selected="false"
       hide_knots="false" /><inkscape:path-effect
       effect="fillet_chamfer"
       id="path-effect18"
       is_visible="true"
       lpeversion="1"
       nodesatellites_param="F,0,0,1,0,0,0,1 @ F,0,0,1,0,0,0,1 @ F,0,0,1,0,0.463418,0,1"
       radius="0"
       unit="px"
       method="auto"
       mode="F"
       chamfer_steps="1"
       flexible="false"
       use_knot_distance="true"
       apply_no_radius="true"
       apply_with_radius="true"
       only_selected="false"
       hide_knots="false" /><inkscape:path-effect
       effect="simplify"
       id="path-effect13"
       is_visible="false"
       lpeversion="1.3"
       threshold="5"
       steps="1"
       smooth_angles="360"
       helper_size="10"
       simplify_individual_paths="true"
       simplify_just_coalesce="false" /></defs><g
     id="plasmapuffs"
     inkscape:label="PlasmaPuffs"
     inkscape:highlight-color="#fac800"
     style="display:none"
     transform="matrix(1.4331894,0,0,1.4331894,-15.199275,-14.687719)"
     sodipodi:insensitive="true"><path
       style="display:inline;fill:#fae196;fill-opacity:1;stroke:#000000;stroke-width:5.00003698;stroke-dasharray:none;stroke-opacity:1"
       d="M 62.043764,178.88504 C 205.0061,221.04071 230.51525,66.087681 109.3633,15.984254 88.700042,7.4387605 65.340918,18.312675 46.820962,37.967059 8.2685932,78.880959 -9.3139625,157.84357 62.043764,178.88504 Z"
       id="path12"
       sodipodi:nodetypes="ssss"
       inkscape:label="Body" /><path
       style="display:inline;fill:none;fill-opacity:1;stroke:#000000;stroke-width:5.00001;stroke-linecap:round;stroke-dasharray:none;stroke-opacity:1"
       d="m 89.928278,157.13358 c 3.199264,8.53147 14.607872,15.16452 26.552722,-0.95607"
       id="path15"
       sodipodi:nodetypes="cc"
       inkscape:label="Mouth" /><path
       style="fill:#000000;fill-opacity:1;stroke:none;stroke-width:5.00001;stroke-dasharray:none;stroke-opacity:1"
       d="m 143.6466,16.528999 c -10.52343,7.184823 -10.62325,23.798343 -10.40113,43.14666 1.25416,12.210095 -4.37995,29.751416 9.45017,35.995324 17.05874,1.728533 13.62186,-64.768709 9.18227,-75.952244 -0.76861,-1.565182 -3.90222,-5.385802 -8.23131,-3.18974 z"
       id="path14"
       inkscape:label="Right Eye"
       sodipodi:nodetypes="sssss" /><path
       style="fill:#000000;fill-opacity:1;stroke:none;stroke-width:5.00001;stroke-dasharray:none;stroke-opacity:1"
       d="M 47.583635,24.909894 C 42.183887,36.607484 43.676955,67.373177 44.47508,79.071183 45.262055,97.867309 58.019238,96.76788 61.827008,88.75617 64.323543,83.503294 65.29254,71.323284 65.793026,52.440492 68.164988,7.3733368 52.858016,14.167166 47.583635,24.909894 Z"
       id="path13"
       sodipodi:nodetypes="sssss"
       inkscape:label="Left Eye" /></g><metadata
     id="metadata15"><rdf:RDF><cc:Work
         rdf:about=""><dc:title>PlasmaPuffs</dc:title></cc:Work></rdf:RDF></metadata><path
     style="fill:#008033;stroke:#1a1a1a;stroke-width:6.89181;stroke-linecap:round;stroke-linejoin:bevel;paint-order:markers fill stroke"
     d="m 5.4521447,193.38245 c 6.1232633,9.30778 62.7567993,11.7916 65.6573383,10.70903 C 93.226051,159.0889 7.1064161,185.57608 5.4521447,193.38245 Z"
     id="path5"
     sodipodi:nodetypes="scs" /><path
     id="rect9"
     style="fill:#ffcc00;stroke:#1a1a1a;stroke-width:7.337;stroke-linecap:round;stroke-linejoin:bevel;paint-order:markers fill stroke"
     d="m 156.74643,33.655296 13.84204,-8.944127 -4.50885,73.707051 -13.97043,-1.016276 z"
     sodipodi:nodetypes="ccccc" /><path
     style="opacity:1;fill:#ff0000;stroke:#1a1a1a;stroke-width:6.89181;stroke-linecap:round;stroke-linejoin:bevel;stroke-dasharray:none;stroke-opacity:1;paint-order:markers fill stroke"
     d="m 211.79722,183.01945 c 12.43893,-1.27678 22.45759,-3.27116 34.73011,-5.67321 8.16656,-2.05082 2.28219,-13.79008 3.0601,-19.78683 -1.7698,-54.82204 -47.71826,-78.046905 -100.55547,-82.086509"
     id="path3"
     sodipodi:nodetypes="cccc" /><path
     style="opacity:1;fill:#00aa44;stroke:#333333;stroke-width:6.89181;stroke-linecap:round;stroke-linejoin:bevel;stroke-opacity:1;paint-order:markers fill stroke"
     d="m 10.142959,188.92048 c 0.729689,-0.57792 39.125212,-28.20435 43.790763,-30.19912 39.628845,-24.92412 92.252308,10.05013 134.478458,21.29631 11.84065,2.98753 26.88366,3.09954 39.11223,2.27382 -3.82601,5.99773 -11.74704,13.18857 -17.52721,17.87626 -70.32717,77.2122 -172.526113,-35.67108 -201.2196637,-10.20223 -1.0479395,0.96672 -2.0421218,1.97766 -3.1064687,2.93073"
     id="path1"
     sodipodi:nodetypes="ccccccc" /><path
     style="fill:#3296fa;fill-opacity:1;stroke:none;stroke-width:7.166;stroke-linecap:round;stroke-linejoin:bevel;paint-order:markers fill stroke"
     d="M 152.94615,77.491763 C 95.570543,56.4066 53.224467,155.34564 67.866976,151.42786 c 27.894396,-11.306 54.244204,17.43803 53.572354,-10.00105"
     id="path8"
     sodipodi:nodetypes="ccc" /><path
     style="fill:#ffcc00;fill-opacity:1;stroke:none;stroke-width:7.166;stroke-linecap:round;stroke-linejoin:bevel;paint-order:markers fill stroke"
     d="m 156.72997,77.311581 c -32.99178,37.791209 -32.37015,74.615359 -30.53833,79.080799 4.00696,3.33811 80.56638,36.35734 78.46226,19.34159 10.5357,-51.37924 -5.16324,-79.881875 -47.92393,-98.422389 z"
     id="path7"
     sodipodi:nodetypes="sccs" /><path
     style="opacity:1;fill:none;stroke:#1a1a1a;stroke-width:6.89181;stroke-linecap:round;stroke-linejoin:bevel;stroke-dasharray:none;stroke-opacity:1;paint-order:markers fill stroke"
     d="M 63.174031,152.8775 C 64.49567,138.58755 76.891012,116.4908 83.931926,106.39742 116.5439,49.19985 211.40325,75.738535 208.01246,139.66363 c -0.002,14.30802 -1.70225,28.57266 -2.8172,42.86477"
     id="path2"
     sodipodi:nodetypes="cccc" /><path
     style="display:inline;fill:none;stroke:#1a1a1a;stroke-width:8.70647;stroke-linecap:round;stroke-linejoin:bevel;stroke-opacity:1;paint-order:markers fill stroke"
     d="m 123.21604,153.60937 c 1.72324,-26.30602 7.55432,-61.713584 33.71104,-74.706779"
     id="path4"
     sodipodi:nodetypes="cc" /><path
     style="display:inline;opacity:1;fill:none;stroke:#1a1a1a;stroke-width:6.89181;stroke-linecap:round;stroke-linejoin:bevel;stroke-opacity:1;paint-order:markers fill stroke"
     d="m 9.7268395,188.69613 c 0.7296895,-0.57792 39.1252115,-28.20435 43.7907625,-30.19912 39.628836,-24.92412 92.252308,10.05013 134.478458,21.29631 11.84065,2.98753 26.88366,3.09954 39.11223,2.27382 -3.82601,5.99773 -11.74704,13.18857 -17.52721,17.87626 -70.32717,77.2122 -172.526113,-35.67108 -201.2196635,-10.20223 -1.047939,0.96672 -2.042122,1.97766 -3.106469,2.93073"
     id="path1-8"
     sodipodi:nodetypes="ccccccc" /><path
     style="fill:#ffcc00;fill-opacity:1;stroke:#1a1a1a;stroke-width:7.166;stroke-linecap:round;stroke-linejoin:bevel;stroke-opacity:1;paint-order:markers fill stroke"
     d="m 103.04311,36.9702 c 17.59083,13.302994 31.42037,13.247641 62.24584,10.837262 C 69.76839,-27.051721 77.923669,17.915686 103.04311,36.9702 Z"
     id="path9"
     sodipodi:nodetypes="ccc" /><path
     style="fill:#ffcc00;fill-opacity:1;stroke:#1a1a1a;stroke-width:7.38131;stroke-linecap:round;stroke-linejoin:bevel;stroke-opacity:1;paint-order:markers fill stroke"
     d="m 240.4726,65.078532 c -9.52089,6.593374 -29.6232,-0.09578 -77.17499,-17.588236 48.55286,-38.7639864 90.70099,8.107444 77.17499,17.588236 z"
     id="path9-5"
     sodipodi:nodetypes="ccc" /></svg>
