<?xml version="1.0" encoding="UTF-8" standalone="no"?>
<!-- Created with Inkscape (http://www.inkscape.org/) -->

<svg
   width="256.00885"
   height="255.99081"
   viewBox="0 0 256.00885 255.99081"
   version="1.1"
   id="svg1"
   xml:space="preserve"
   xmlns="http://www.w3.org/2000/svg"
   xmlns:svg="http://www.w3.org/2000/svg"
   xmlns:rdf="http://www.w3.org/1999/02/22-rdf-syntax-ns#"
   xmlns:cc="http://creativecommons.org/ns#"
   xmlns:dc="http://purl.org/dc/elements/1.1/"><title
     id="title15">PlasmaPuffs</title><defs
     id="defs1" /><path
     style="display:inline;fill:#ffffff;fill-opacity:0.1;stroke:#ffffff;stroke-width:8;stroke-dasharray:none;stroke-opacity:0.5"
     d="M 73.83918,241.69218 C 278.30193,302.11411 314.78476,80.019171 141.51492,8.2056832 111.96262,-4.0426145 78.554724,11.543021 52.06774,39.713746 -3.0693216,98.355839 -28.215649,211.53334 73.83918,241.69218 Z"
     id="path12" /><path
     style="display:inline;fill:none;fill-opacity:1;stroke:#ffffff;stroke-width:8.00002;stroke-linecap:round;stroke-dasharray:none;stroke-opacity:0.5"
     d="m 113.71922,210.51571 c 4.57555,12.22819 20.89198,21.73538 37.97534,-1.37034"
     id="path15" /><path
     style="fill:#ffffff;fill-opacity:0.5;stroke:none;stroke-width:8.00002;stroke-dasharray:none;stroke-opacity:1"
     d="M 190.54642,8.9864689 C 175.49596,19.284511 175.3532,43.096751 175.67087,70.828788 c 1.79368,17.500789 -6.26414,42.642852 13.5155,51.592272 24.39717,2.47752 19.4818,-92.833305 13.13236,-108.862721 -1.09926,-2.243383 -5.5809,-7.7194966 -11.77231,-4.5718701 z"
     id="path14" /><path
     style="fill:#ffffff;fill-opacity:0.5;stroke:none;stroke-width:8.00002;stroke-dasharray:none;stroke-opacity:1"
     d="M 53.158504,20.998847 C 45.43586,37.76506 47.571225,81.861679 48.712692,98.628488 49.838213,125.56907 68.083359,123.99325 73.529178,112.51003 77.099688,104.98106 78.485534,87.523386 79.201322,60.458588 82.593669,-4.1363866 60.701851,5.601242 53.158504,20.998847 Z"
     id="path13" /><metadata
     id="metadata15"><rdf:RDF><cc:Work
         rdf:about=""><dc:title>PlasmaPuffs</dc:title></cc:Work></rdf:RDF></metadata></svg>
