<?xml version="1.0" encoding="UTF-8" standalone="no"?>
<!-- Created with Inkscape (http://www.inkscape.org/) -->

<svg
   width="128"
   height="256"
   viewBox="0 0 128 256"
   version="1.1"
   id="svg1"
   xml:space="preserve"
   inkscape:version="1.4.2 (f4327f4, 2025-05-13)"
   sodipodi:docname="sword.svg"
   inkscape:export-filename="sword.png"
   inkscape:export-xdpi="768"
   inkscape:export-ydpi="768"
   xmlns:inkscape="http://www.inkscape.org/namespaces/inkscape"
   xmlns:sodipodi="http://sodipodi.sourceforge.net/DTD/sodipodi-0.dtd"
   xmlns="http://www.w3.org/2000/svg"
   xmlns:svg="http://www.w3.org/2000/svg"
   xmlns:rdf="http://www.w3.org/1999/02/22-rdf-syntax-ns#"
   xmlns:cc="http://creativecommons.org/ns#"
   xmlns:dc="http://purl.org/dc/elements/1.1/"><title
     id="title15">PlasmaPuffs</title><sodipodi:namedview
     id="namedview1"
     pagecolor="#ffffff"
     bordercolor="#000000"
     borderopacity="0.25"
     inkscape:showpageshadow="false"
     inkscape:pageopacity="0.0"
     inkscape:pagecheckerboard="true"
     inkscape:deskcolor="#d1d1d1"
     inkscape:document-units="px"
     showborder="false"
     borderlayer="false"
     labelstyle="below"
     inkscape:zoom="2.68"
     inkscape:cx="-30.970149"
     inkscape:cy="205.03731"
     inkscape:window-width="1920"
     inkscape:window-height="1094"
     inkscape:window-x="-11"
     inkscape:window-y="-11"
     inkscape:window-maximized="1"
     inkscape:current-layer="layer4"
     showgrid="false" /><defs
     id="defs1"><inkscape:path-effect
       effect="fillet_chamfer"
       id="path-effect20"
       is_visible="true"
       lpeversion="1"
       nodesatellites_param="F,0,0,1,0,0,0,1 @ F,0,0,1,0,0.45372719,0,1 @ F,0,0,1,0,0,0,1"
       radius="0"
       unit="px"
       method="auto"
       mode="F"
       chamfer_steps="1"
       flexible="false"
       use_knot_distance="true"
       apply_no_radius="true"
       apply_with_radius="true"
       only_selected="false"
       hide_knots="false" /><inkscape:path-effect
       effect="fillet_chamfer"
       id="path-effect19"
       is_visible="true"
       lpeversion="1"
       nodesatellites_param="F,0,0,1,0,0,0,1 @ F,0,0,1,0,0.73496695,0,1 @ F,0,0,1,0,0,0,1"
       radius="0"
       unit="px"
       method="auto"
       mode="F"
       chamfer_steps="1"
       flexible="false"
       use_knot_distance="true"
       apply_no_radius="true"
       apply_with_radius="true"
       only_selected="false"
       hide_knots="false" /><inkscape:path-effect
       effect="fillet_chamfer"
       id="path-effect18"
       is_visible="true"
       lpeversion="1"
       nodesatellites_param="F,0,0,1,0,0,0,1 @ F,0,0,1,0,0,0,1 @ F,0,0,1,0,0.463418,0,1"
       radius="0"
       unit="px"
       method="auto"
       mode="F"
       chamfer_steps="1"
       flexible="false"
       use_knot_distance="true"
       apply_no_radius="true"
       apply_with_radius="true"
       only_selected="false"
       hide_knots="false" /><inkscape:path-effect
       effect="simplify"
       id="path-effect13"
       is_visible="false"
       lpeversion="1.3"
       threshold="5"
       steps="1"
       smooth_angles="360"
       helper_size="10"
       simplify_individual_paths="true"
       simplify_just_coalesce="false" /></defs><g
     id="plasmapuffs"
     inkscape:label="PlasmaPuffs"
     inkscape:highlight-color="#fac800"
     style="display:none"
     transform="matrix(1.4331894,0,0,1.4331894,-15.199275,-14.687719)"
     sodipodi:insensitive="true"><path
       style="display:inline;fill:#fae196;fill-opacity:1;stroke:#000000;stroke-width:5.00004;stroke-dasharray:none;stroke-opacity:1"
       d="M 62.043764,178.88504 C 205.0061,221.04071 230.51525,66.087681 109.3633,15.984254 88.700042,7.4387605 65.340918,18.312675 46.820962,37.967059 8.2685932,78.880959 -9.3139625,157.84357 62.043764,178.88504 Z"
       id="path12"
       sodipodi:nodetypes="ssss"
       inkscape:label="Body" /><path
       style="display:inline;fill:none;fill-opacity:1;stroke:#000000;stroke-width:5.00001;stroke-linecap:round;stroke-dasharray:none;stroke-opacity:1"
       d="m 89.928278,157.13358 c 3.199264,8.53147 14.607872,15.16452 26.552722,-0.95607"
       id="path15"
       sodipodi:nodetypes="cc"
       inkscape:label="Mouth" /><path
       style="fill:#000000;fill-opacity:1;stroke:none;stroke-width:5.00001;stroke-dasharray:none;stroke-opacity:1"
       d="m 143.6466,16.528999 c -10.52343,7.184823 -10.62325,23.798343 -10.40113,43.14666 1.25416,12.210095 -4.37995,29.751416 9.45017,35.995324 17.05874,1.728533 13.62186,-64.768709 9.18227,-75.952244 -0.76861,-1.565182 -3.90222,-5.385802 -8.23131,-3.18974 z"
       id="path14"
       inkscape:label="Right Eye"
       sodipodi:nodetypes="sssss" /><path
       style="fill:#000000;fill-opacity:1;stroke:none;stroke-width:5.00001;stroke-dasharray:none;stroke-opacity:1"
       d="M 47.583635,24.909894 C 42.183887,36.607484 43.676955,67.373177 44.47508,79.071183 45.262055,97.867309 58.019238,96.76788 61.827008,88.75617 64.323543,83.503294 65.29254,71.323284 65.793026,52.440492 68.164988,7.3733368 52.858016,14.167166 47.583635,24.909894 Z"
       id="path13"
       sodipodi:nodetypes="sssss"
       inkscape:label="Left Eye" /></g><metadata
     id="metadata15"><rdf:RDF><cc:Work
         rdf:about=""><dc:title>PlasmaPuffs</dc:title></cc:Work></rdf:RDF></metadata><g
     inkscape:groupmode="layer"
     id="layer1"
     inkscape:label="Blade"
     style="display:inline"
     transform="translate(0,-4.4672656)"
     sodipodi:insensitive="true"><path
       id="rect4"
       style="fill:#b3b3b3;fill-opacity:1;stroke:#333333;stroke-width:7.166;stroke-linecap:round;stroke-dasharray:none;stroke-opacity:1"
       d="M 62.884766,8.099608 C 62.781492,8.0980444 62.684152,8.1459025 62.625,8.227325 L 47.615555,29.36339 77.367188,29.29499 63.140625,8.2348377 C 63.084019,8.151662 62.988127,8.1009797 62.884766,8.099608 Z M 46.337891,32.534869 c -1.385,0 -2.5,1.072222 -2.5,2.404084 V 169.36294 c 0,1.33186 1.115,2.40409 2.5,2.40409 h 31.917968 c 1.385,0 2.5,-1.07223 2.5,-2.40409 V 34.938953 c 0,-1.331862 -1.115,-2.404084 -2.5,-2.404084 z"
       inkscape:label="Background"
       sodipodi:nodetypes="ccccccsssssssss" /><path
       style="fill:#b3b3b3;fill-opacity:1;stroke:none;stroke-width:5;stroke-linecap:round;stroke-dasharray:none;stroke-opacity:1"
       d="M 47.347296,37.649916 77.213919,37.135484 62.914507,10.834785 Z"
       id="path4-2"
       inkscape:label="Tip"
       sodipodi:nodetypes="cccc" /><path
       style="fill:#e6e6e6;fill-opacity:1;stroke:none;stroke-width:2.5;stroke-linecap:round;stroke-dasharray:none;stroke-opacity:1"
       d="M 62.915313,10.823129 47.382074,37.15244 62.454479,40.540316 Z"
       id="path5"
       sodipodi:nodetypes="cccc"
       inkscape:label="Light" /><path
       style="fill:#999999;fill-opacity:1;stroke:none;stroke-width:2.5;stroke-linecap:round;stroke-dasharray:none;stroke-opacity:1"
       d="M 62.506985,40.44836 77.20402,37.170008 77.21824,168.65557 63.481496,171.42661 Z"
       id="path7"
       sodipodi:nodetypes="ccccc"
       inkscape:label="Right Shadow" /><path
       style="fill:#cccccc;fill-opacity:1;stroke:none;stroke-width:2.5;stroke-linecap:round;stroke-dasharray:none;stroke-opacity:1"
       d="m 47.326727,37.093223 15.131688,3.348389 1.015024,130.984958 -16.048775,-2.5003 z"
       id="path6"
       sodipodi:nodetypes="ccccc"
       inkscape:label="Left Light" /></g><g
     inkscape:groupmode="layer"
     id="layer4"
     inkscape:label="Handle"
     style="display:inline;opacity:1"
     sodipodi:insensitive="true"><ellipse
       style="display:inline;opacity:1;fill:#fac800;fill-opacity:1;stroke:#2b1100;stroke-width:7.166;stroke-linecap:round;stroke-dasharray:none"
       id="path3"
       cx="63.535633"
       cy="241.9509"
       rx="15"
       ry="10" /><rect
       style="fill:#aa4400;fill-opacity:1;stroke:#2b1100;stroke-width:7.166;stroke-linecap:round;stroke-dasharray:none"
       id="rect3"
       width="20"
       height="51.759415"
       x="53.20385"
       y="184.60176"
       rx="2.5"
       ry="2.5"
       inkscape:label="Background" /><path
       style="display:inline;opacity:1;fill:#803300;fill-opacity:1;stroke:none;stroke-width:2.5;stroke-linecap:round;stroke-linejoin:bevel;stroke-dasharray:none;stroke-opacity:1;paint-order:markers fill stroke"
       d="m 63.314029,188.21048 6.59418,0.0196 -0.230865,47.72529 -6.613511,0.12109 z"
       id="path10"
       sodipodi:nodetypes="ccccc"
       inkscape:label="Shadow" /><rect
       style="display:inline;opacity:1;fill:#aa4400;fill-opacity:1;stroke:none;stroke-width:7.166;stroke-linecap:round;stroke-linejoin:bevel;stroke-dasharray:none;stroke-opacity:1;paint-order:markers fill stroke"
       id="rect20"
       width="6.2993188"
       height="3.9247067"
       x="56.82579"
       y="232.51413" /><rect
       style="fill:#2b1100;fill-opacity:1;stroke:none;stroke-width:2.5584;stroke-linecap:round;stroke-linejoin:bevel;stroke-dasharray:none;stroke-opacity:1;paint-order:markers fill stroke"
       id="rect11-3"
       width="18.850718"
       height="2"
       x="56.583412"
       y="208.69473"
       transform="matrix(0.95487084,-0.29702135,0,1,0,0)" /><rect
       style="fill:#2b1100;fill-opacity:1;stroke:none;stroke-width:2.5584;stroke-linecap:round;stroke-linejoin:bevel;stroke-dasharray:none;stroke-opacity:1;paint-order:markers fill stroke"
       id="rect11-3-5"
       width="18.850718"
       height="2"
       x="56.360672"
       y="218.68826"
       transform="matrix(0.95487084,-0.29702135,0,1,0,0)" /><rect
       style="fill:#2b1100;fill-opacity:1;stroke:none;stroke-width:2.5584;stroke-linecap:round;stroke-linejoin:bevel;stroke-dasharray:none;stroke-opacity:1;paint-order:markers fill stroke"
       id="rect11-3-5-0"
       width="18.850718"
       height="2"
       x="57.443104"
       y="228.86238"
       transform="matrix(0.95487084,-0.29702135,0,1,0,0)" /><rect
       style="fill:#2b1100;fill-opacity:1;stroke:none;stroke-width:2.5584;stroke-linecap:round;stroke-linejoin:bevel;stroke-dasharray:none;stroke-opacity:1;paint-order:markers fill stroke"
       id="rect11-3-5-0-5"
       width="18.850718"
       height="2"
       x="58.179703"
       y="238.9711"
       transform="matrix(0.95487084,-0.29702135,0,1,0,0)" /><rect
       style="fill:#2b1100;fill-opacity:1;stroke:none;stroke-width:2.5584;stroke-linecap:round;stroke-linejoin:bevel;stroke-dasharray:none;stroke-opacity:1;paint-order:markers fill stroke"
       id="rect11-3-5-0-5-6"
       width="18.850718"
       height="2"
       x="58.488415"
       y="248.87064"
       transform="matrix(0.95487084,-0.29702135,0,1,0,0)" /><ellipse
       style="display:inline;fill:#aa4400;fill-opacity:1;stroke:none;stroke-width:2.5;stroke-linecap:round;stroke-dasharray:none"
       id="path3-1-7"
       cx="63.410156"
       cy="239.35596"
       rx="10.27556"
       ry="4.3995781" /></g><ellipse
     style="display:none;opacity:0.5;fill:#fae196;stroke:#000000;stroke-width:5.77297;stroke-linecap:round"
     id="path1"
     cx="63.590527"
     cy="207.96016"
     rx="29.422155"
     ry="30.233614"
     sodipodi:insensitive="true"
     inkscape:label="Hand" /><g
     inkscape:groupmode="layer"
     id="layer2"
     inkscape:label="Guard"
     style="display:inline;opacity:1"
     transform="translate(0.13192291,2.902304)"
     sodipodi:insensitive="true"><g
       inkscape:groupmode="layer"
       id="layer3"
       inkscape:label="Background"><path
         id="rect1"
         style="fill:#fac800;fill-opacity:1;stroke:#2b1100;stroke-width:7.166;stroke-linecap:round;stroke-dasharray:none"
         d="m 107.11876,151.55039 c -0.16691,-7.5e-4 -0.33719,0.0276 -0.50745,0.0842 l -43.233151,14.3399 -43.109712,-11.17236 c -1.372552,-0.35575 -2.650978,1.18247 -2.866408,3.44911 l -1.08935,11.45385 c -0.215429,2.26666 0.716025,4.37786 2.088576,4.73362 l 44.596796,11.56063 c 0.380512,0.0986 0.753748,0.0512 1.099148,-0.11645 0.205866,0.0174 0.417116,-0.006 0.628924,-0.0777 l 44.629017,-12.20717 c 1.2632,-0.53378 0.1836,-4.81255 0.60259,-6.95275 l -0.39383,-11.76549 c -0.23941,-1.96829 -1.27683,-3.32434 -2.44515,-3.32938 z"
         sodipodi:nodetypes="sccccccccccccss" /><path
         style="fill:#fac800;fill-opacity:1;stroke:#2b1100;stroke-width:5.56759;stroke-linecap:round;stroke-dasharray:none;stroke-opacity:1"
         d="m 110.85639,174.44862 5.24252,-16.58706 a 0.16465534,0.16465534 37.485296 0 0 -0.24564,-0.18838 l -12.29666,7.85471 z"
         id="path8"
         transform="matrix(1,0,0,1.656603,-1.0261194,-121.99781)"
         sodipodi:nodetypes="cccc"
         inkscape:original-d="m 110.85639,174.44862 5.37926,-17.01969 -12.67904,8.09896 z"
         inkscape:path-effect="#path-effect20" /><path
         style="fill:#fac800;fill-opacity:1;stroke:none;stroke-width:2.5;stroke-linecap:round;stroke-linejoin:bevel;stroke-dasharray:none;stroke-opacity:1;paint-order:markers fill stroke"
         d="m 106.75334,153.14962 -5.67962,4.26479 5.28659,13.22481 2.54366,-14.29514 z"
         id="path9"
         sodipodi:nodetypes="ccccc" /><path
         style="fill:#fac800;fill-opacity:1;stroke:#2b1100;stroke-width:5.64118;stroke-linecap:round;stroke-dasharray:none;stroke-opacity:1"
         d="m 16.279901,175.11173 -5.291287,-15.20484 a 0.27309497,0.27309497 140.42832 0 1 0.394654,-0.32616 l 11.929921,6.90011 z"
         id="path8-1"
         transform="matrix(1.0397164,0,0,1.5520255,0.40518566,-103.15025)"
         sodipodi:nodetypes="cccc"
         inkscape:original-d="m 16.279901,175.11173 -5.532847,-15.89898 12.566135,7.26809 z"
         inkscape:path-effect="#path-effect19" /><path
         style="fill:#fac800;fill-opacity:1;stroke:none;stroke-width:2.5;stroke-linecap:round;stroke-linejoin:bevel;stroke-dasharray:none;stroke-opacity:1;paint-order:markers fill stroke"
         d="m 20.019477,156.32643 5.920955,3.68583 -6.048914,10.97662 -1.697293,-11.79893 z"
         id="path9-6"
         sodipodi:nodetypes="ccccc" /></g><path
       style="fill:#ffe680;fill-opacity:1;stroke:none;stroke-width:2.5;stroke-linecap:round;stroke-linejoin:bevel;stroke-dasharray:none;stroke-opacity:1;paint-order:markers fill stroke"
       d="m 16.784848,153.52517 3.076293,17.63813 43.683188,-1.44774 -37.733763,-9.84221 z"
       id="path16"
       sodipodi:nodetypes="ccccc"
       inkscape:label="Light" /><path
       style="display:inline;fill:#d4aa00;fill-opacity:1;stroke:none;stroke-width:2.5;stroke-linecap:round;stroke-linejoin:bevel;stroke-dasharray:none;stroke-opacity:1;paint-order:markers fill stroke"
       d="M 63.370221,169.59032 63.268928,182.4594 106.65876,170.63497 Z"
       id="path17"
       sodipodi:nodetypes="cccc"
       inkscape:label="Shadow" /></g></svg>
